<svg xmlns="http://www.w3.org/2000/svg" width="1080" height="1080" viewBox="0 0 1080 1080"><defs><style>.a,.c,.f{fill:none;}.a{stroke:#95dbe5;}.a,.b,.c,.f{stroke-miterlimit:10;}.a,.b,.f{stroke-width:5px;}.b,.e{fill:#fff;}.b,.f{stroke:#339e66;}.c{stroke:#231f20;stroke-width:3.0421px;}.d{fill:#231f20;}</style></defs><rect class="a" x="128.2992" y="96.6673" width="806.5011" height="806.5011"/><rect class="b" x="151.6087" y="113.2712" width="806.5011" height="806.5011"/><path class="c" d="M421.5015,682.2585c-3.3154,4.93-6.3871,10.0256-10.6954,14.2279a25.3544,25.3544,0,0,1-39.9144-5.7508,245.9,245.9,0,0,1-29.0949-86.4012,252.8087,252.8087,0,0,1-1.9706-49.9712,242.61,242.61,0,0,1,22.58-89.8323,236.462,236.462,0,0,1,51.2677-71.9486c32.4708-30.9685,70.5924-51.173,114.84-59.6237a213.7415,213.7415,0,0,1,53.2232-3.5455c45.0993,2.7471,85.9833,17.59,121.9513,45.0155,47.364,36.1148,77.0162,83.6607,89.9953,141.7247a255.4825,255.4825,0,0,1,5.8177,64.407c-1.0593,32.0214-7.3107,63.0119-20.439,92.3953a95.4061,95.4061,0,0,1-14.5889,23.0317c-6.7973,7.9669-18.6487,10.1379-30.8544,5.8922-7.2431-3.8185-12.4483-9.7519-17.0383-16.3444-2.9582-4.2487-5.839-8.5651-9.0325-12.633-4.7233-6.0167-9.9452-11.5164-17.8619-13.2817-7.3115-1.63-17.7886-.6564-23.1906,7.0847-5.5295,4.4714-8.48,10.8571-12.3271,16.58-2.2475,3.3436-4.348,6.8186-6.8952,9.9222-7.7252,9.4125-17.9529,14.0639-32.3484,7.8408-7.2637-4.9083-12.5579-11.6357-17.3915-18.7955-3.6789-5.4494-7.35-10.9146-12.1385-15.4893-8.9433-8.5447-21.6318-10.4608-30.9416-4.4344-6.4014,4.1438-10.94,10.0194-14.2329,16.8673-3.3834,4.5581-6.0449,9.6011-9.6884,13.9981-11.2062,13.5235-27.03,14.4076-39.5774,2.1129-.7172-.7027-1.5115-1.3267-2.27-1.9866q-6.9232-9.75-13.8505-19.4973a48.1213,48.1213,0,0,0-7.9888-8.6249c-10.2346-8.739-23.66-8.6422-33.4826.4714A54.761,54.761,0,0,0,421.5015,682.2585Zm255.126-163.6031a94.4465,94.4465,0,0,0-1.117-18.3058c-5.607-33.73-21.14-61.8887-48.28-82.9378-26.629-20.653-56.7035-28.2013-89.703-19.8085-34.0722,8.6656-58.125,30.4-74.5737,60.8019-16.3384,30.1983-19.17,62.3447-11.25,95.3908,8.6683,36.1683,31.2608,59.5071,67.201,69.2493a163.1656,163.1656,0,0,0,89.5374-.764c26.5259-7.7029,46.3645-23.9184,57.8943-49.393C673.9761,556.0085,676.8071,538.0991,676.6275,518.6554Z"/><path class="d" d="M488.4535,475.8594c.1978-14.2568,5.2355-26.44,16.0457-35.8852,16.9125-14.7769,41.5172-13.4034,57.1121,2.989,17.231,18.1124,17.17,48.11-.1354,66.148-21.8951,22.8223-58.7412,14.4911-69.9189-15.7979A47.5115,47.5115,0,0,1,488.4535,475.8594Zm14.6047-10.5841a21.2782,21.2782,0,1,0,21.2949-21.1268A21.2848,21.2848,0,0,0,503.0582,465.2753Z"/><path class="e" d="M503.0582,465.2753a21.2782,21.2782,0,1,1,21.1973,21.2332A21.2722,21.2722,0,0,1,503.0582,465.2753Z"/><line class="f" x1="229.087" y1="197" x2="350.3913" y2="197"/><line class="f" x1="441.1739" y1="197" x2="503.0582" y2="197"/><line class="f" x1="554.8592" y1="197" x2="584.3913" y2="197"/></svg>