<svg id="Layer_1" data-name="Layer 1" xmlns="http://www.w3.org/2000/svg" viewBox="0 0 1080 1080"><defs><style>.cls-1,.cls-10,.cls-11,.cls-12,.cls-13,.cls-14,.cls-15,.cls-16,.cls-17,.cls-18,.cls-19,.cls-2,.cls-20,.cls-21,.cls-3,.cls-4,.cls-5,.cls-6,.cls-7,.cls-8,.cls-9{fill:none;stroke-miterlimit:10;}.cls-1,.cls-12,.cls-16,.cls-20,.cls-4,.cls-8{stroke:#95dbe5;}.cls-1{stroke-width:5px;}.cls-10,.cls-11,.cls-13,.cls-14,.cls-15,.cls-17,.cls-18,.cls-19,.cls-2,.cls-21,.cls-3,.cls-5,.cls-6,.cls-7,.cls-9{stroke:#078282;}.cls-10,.cls-11,.cls-12,.cls-13,.cls-14,.cls-15,.cls-16,.cls-17,.cls-18,.cls-19,.cls-2,.cls-20,.cls-21,.cls-3,.cls-4,.cls-5,.cls-6,.cls-7,.cls-8,.cls-9{stroke-linecap:round;}.cls-2{stroke-width:69.352px;}.cls-3,.cls-4{stroke-width:55.4816px;}.cls-5{stroke-width:23.1173px;}.cls-6{stroke-width:41.2816px;}.cls-7,.cls-8{stroke-width:33.0253px;}.cls-9{stroke-width:13.7605px;}.cls-10{stroke-width:72.901px;}.cls-11,.cls-12{stroke-width:58.3208px;}.cls-13{stroke-width:24.3003px;}.cls-14{stroke-width:23.1607px;}.cls-15,.cls-16{stroke-width:18.5285px;}.cls-17{stroke-width:7.7202px;}.cls-18{stroke-width:21.4931px;}.cls-19,.cls-20{stroke-width:17.1945px;}.cls-21{stroke-width:7.1644px;}</style></defs><rect class="cls-1" x="128.2992" y="96.6673" width="806.5011" height="806.5011"/><line class="cls-2" x1="164.5379" y1="520.5679" x2="255.2874" y2="575.0176"/><line class="cls-3" x1="306.9215" y1="744.7021" x2="397.0852" y2="798.8003"/><line class="cls-4" x1="152.3134" y1="651.9373" x2="306.9215" y2="744.7021"/><line class="cls-3" x1="327.4391" y1="896.5326" x2="402.7246" y2="941.7039"/><line class="cls-4" x1="157.9528" y1="794.8408" x2="327.4391" y2="896.5326"/><line class="cls-3" x1="229.6175" y1="963.7051" x2="397.0852" y2="1064.1858"/><line class="cls-3" x1="465.4879" y1="1044.0852" x2="632.9557" y2="1144.5659"/><line class="cls-4" x1="152.3134" y1="917.3227" x2="229.6175" y2="963.7051"/><line class="cls-5" x1="152.3134" y1="578.5057" x2="289.8835" y2="661.0477"/><line class="cls-5" x1="152.3134" y1="716.5858" x2="289.1988" y2="798.7171"/><line class="cls-5" x1="152.3134" y1="856.1806" x2="297.5249" y2="943.3074"/><line class="cls-6" x1="614.7052" y1="705.3785" x2="668.7237" y2="737.7896"/><line class="cls-7" x1="699.4587" y1="838.7939" x2="753.1285" y2="870.9958"/><line class="cls-8" x1="607.4286" y1="783.5758" x2="699.4587" y2="838.7939"/><line class="cls-7" x1="711.6718" y1="929.1707" x2="756.4853" y2="956.0588"/><line class="cls-8" x1="610.7854" y1="868.6389" x2="711.6718" y2="929.1707"/><line class="cls-7" x1="653.4437" y1="969.155" x2="753.1285" y2="1028.9659"/><line class="cls-7" x1="793.845" y1="1017.0011" x2="893.5299" y2="1076.812"/><line class="cls-8" x1="607.4286" y1="941.5459" x2="653.4437" y2="969.155"/><line class="cls-9" x1="607.4286" y1="739.8658" x2="689.3169" y2="788.9988"/><line class="cls-9" x1="607.4286" y1="822.0577" x2="688.9094" y2="870.9462"/><line class="cls-9" x1="607.4286" y1="905.1512" x2="693.8654" y2="957.0133"/><line class="cls-10" x1="465.4619" y1="13.844" x2="560.8555" y2="71.0801"/><line class="cls-11" x1="615.1319" y1="249.448" x2="709.9097" y2="306.3147"/><line class="cls-12" x1="452.6119" y1="151.936" x2="615.1319" y2="249.448"/><line class="cls-11" x1="636.6995" y1="409.0484" x2="715.8376" y2="456.5312"/><line class="cls-12" x1="458.5398" y1="302.1526" x2="636.6995" y2="409.0484"/><line class="cls-11" x1="533.8719" y1="479.6584" x2="709.9097" y2="585.2811"/><line class="cls-11" x1="781.8127" y1="564.1519" x2="957.8505" y2="669.7745"/><line class="cls-12" x1="452.6119" y1="430.9024" x2="533.8719" y2="479.6584"/><line class="cls-13" x1="452.6119" y1="74.7467" x2="597.2219" y2="161.5127"/><line class="cls-13" x1="452.6119" y1="219.8929" x2="596.5023" y2="306.2272"/><line class="cls-13" x1="452.6119" y1="366.6313" x2="605.2544" y2="458.2168"/><line class="cls-6" x1="771.1816" y1="473.8944" x2="825.2001" y2="506.3054"/><line class="cls-7" x1="855.9352" y1="607.3098" x2="909.605" y2="639.5116"/><line class="cls-8" x1="763.9051" y1="552.0917" x2="855.9352" y2="607.3098"/><line class="cls-7" x1="868.1483" y1="697.6866" x2="912.9618" y2="724.5747"/><line class="cls-8" x1="767.2619" y1="637.1547" x2="868.1483" y2="697.6866"/><line class="cls-7" x1="809.9201" y1="737.6709" x2="909.605" y2="797.4818"/><line class="cls-7" x1="950.3215" y1="785.5169" x2="1050.0063" y2="845.3278"/><line class="cls-8" x1="763.9051" y1="710.0618" x2="809.9201" y2="737.6709"/><line class="cls-9" x1="763.9051" y1="508.3817" x2="845.7933" y2="557.5147"/><line class="cls-9" x1="763.9051" y1="590.5736" x2="845.3858" y2="639.4621"/><line class="cls-9" x1="763.9051" y1="673.6671" x2="850.3419" y2="725.5292"/><line class="cls-6" x1="229.3078" y1="194.0876" x2="283.3263" y2="226.4987"/><line class="cls-7" x1="314.0614" y1="327.503" x2="367.7311" y2="359.7049"/><line class="cls-8" x1="222.0312" y1="272.2849" x2="314.0614" y2="327.503"/><line class="cls-7" x1="326.2745" y1="417.8798" x2="371.088" y2="444.7679"/><line class="cls-8" x1="225.3881" y1="357.348" x2="326.2745" y2="417.8798"/><line class="cls-7" x1="268.0463" y1="457.8641" x2="367.7311" y2="517.675"/><line class="cls-7" x1="408.4477" y1="505.7102" x2="508.1325" y2="565.5211"/><line class="cls-8" x1="222.0312" y1="430.2551" x2="268.0463" y2="457.8641"/><line class="cls-9" x1="222.0312" y1="228.575" x2="303.9195" y2="277.7079"/><line class="cls-9" x1="222.0312" y1="310.7668" x2="303.512" y2="359.6553"/><line class="cls-9" x1="222.0312" y1="393.8603" x2="308.468" y2="445.7224"/><line class="cls-14" x1="399.7866" y1="563.226" x2="430.0931" y2="581.41"/><line class="cls-15" x1="447.3367" y1="638.0775" x2="477.4476" y2="656.144"/><line class="cls-16" x1="395.7041" y1="607.0979" x2="447.3367" y2="638.0775"/><line class="cls-15" x1="454.1888" y1="688.7825" x2="479.3309" y2="703.8678"/><line class="cls-16" x1="397.5874" y1="654.8217" x2="454.1888" y2="688.7825"/><line class="cls-15" x1="421.5204" y1="711.2153" x2="477.4476" y2="744.7717"/><line class="cls-15" x1="500.2912" y1="738.0589" x2="556.2185" y2="771.6152"/><line class="cls-16" x1="395.7041" y1="695.7255" x2="421.5204" y2="711.2153"/><line class="cls-17" x1="395.7041" y1="582.5748" x2="441.6467" y2="610.1404"/><line class="cls-17" x1="395.7041" y1="628.6878" x2="441.4181" y2="656.1162"/><line class="cls-17" x1="395.7041" y1="675.3066" x2="444.1986" y2="704.4033"/><line class="cls-18" x1="458.4324" y1="812.5445" x2="486.5569" y2="829.4192"/><line class="cls-19" x1="502.559" y1="882.0066" x2="530.5019" y2="898.7724"/><line class="cls-20" x1="454.6439" y1="853.2576" x2="502.559" y2="882.0066"/><line class="cls-19" x1="508.9177" y1="929.0609" x2="532.2496" y2="943.0601"/><line class="cls-20" x1="456.3916" y1="897.5453" x2="508.9177" y2="929.0609"/><line class="cls-19" x1="478.6014" y1="949.8786" x2="530.5019" y2="981.0189"/><line class="cls-19" x1="551.7008" y1="974.7894" x2="603.6013" y2="1005.9297"/><line class="cls-20" x1="454.6439" y1="935.5041" x2="478.6014" y2="949.8786"/><line class="cls-21" x1="454.6439" y1="830.5002" x2="497.2787" y2="856.0811"/><line class="cls-21" x1="454.6439" y1="873.293" x2="497.0665" y2="898.7466"/><line class="cls-21" x1="454.6439" y1="916.5553" x2="499.6468" y2="943.5571"/></svg>